FILE "C:\MYDATA1.ISO" BINARY
  TRACK 01 MODE1/2048
    INDEX 01 00:00:00
FILE "C:\TRACK1.WAV" WAVE
  TRACK 02 AUDIO
    PREGAP 00:02:00
    INDEX 01 00:00:00
FILE "C:\TRACK2.WAV" WAVE
  TRACK 03 AUDIO
    INDEX 01 00:00:00
FILE "C:\TRACK3.WAV" WAVE
  TRACK 04 AUDIO
    INDEX 01 00:00:00
FILE "C:\TRACK4.WAV" WAVE
  TRACK 05 AUDIO
    INDEX 01 00:00:00